<mxfile host="app.diagrams.net" modified="2023-04-29T19:29:11.196Z" agent="Mozilla/5.0 (X11; Linux x86_64) AppleWebKit/537.36 (KHTML, like Gecko) Chrome/112.0.0.0 Safari/537.36" etag="kqUy8VlhCjScKGOzyyVq" version="21.2.1" type="device">
  <diagram name="Page-1" id="2a-pD13Hj2WzzX6EYF3M">
    <mxGraphModel dx="1509" dy="935" grid="1" gridSize="10" guides="1" tooltips="1" connect="1" arrows="1" fold="1" page="1" pageScale="1" pageWidth="827" pageHeight="1169" math="0" shadow="0">
      <root>
        <mxCell id="0" />
        <mxCell id="1" parent="0" />
        <mxCell id="uz8MjBbj6O2urt8frnY6-18" value="Original Version (not possible)" style="rounded=0;whiteSpace=wrap;html=1;dashed=1;fillColor=#fff2cc;strokeColor=#d6b656;opacity=20;align=left;verticalAlign=top;" vertex="1" parent="1">
          <mxGeometry x="230" y="140" width="580" height="360" as="geometry" />
        </mxCell>
        <mxCell id="uz8MjBbj6O2urt8frnY6-1" value="KLEE" style="rounded=0;whiteSpace=wrap;html=1;" vertex="1" parent="1">
          <mxGeometry x="240" y="360" width="120" height="60" as="geometry" />
        </mxCell>
        <mxCell id="uz8MjBbj6O2urt8frnY6-3" value="" style="curved=1;endArrow=classic;html=1;rounded=0;entryX=0;entryY=0.5;entryDx=0;entryDy=0;exitX=1;exitY=0.5;exitDx=0;exitDy=0;" edge="1" parent="1" source="uz8MjBbj6O2urt8frnY6-1" target="uz8MjBbj6O2urt8frnY6-6">
          <mxGeometry width="50" height="50" relative="1" as="geometry">
            <mxPoint x="350" y="410" as="sourcePoint" />
            <mxPoint x="440" y="390" as="targetPoint" />
            <Array as="points">
              <mxPoint x="400" y="410" />
              <mxPoint x="390" y="390" />
              <mxPoint x="350" y="360" />
            </Array>
          </mxGeometry>
        </mxCell>
        <mxCell id="uz8MjBbj6O2urt8frnY6-5" value="cli args" style="text;html=1;align=center;verticalAlign=middle;resizable=0;points=[];autosize=1;strokeColor=none;fillColor=none;" vertex="1" parent="1">
          <mxGeometry x="370" y="340" width="60" height="30" as="geometry" />
        </mxCell>
        <mxCell id="uz8MjBbj6O2urt8frnY6-13" value="creating .yml from cli args" style="edgeStyle=orthogonalEdgeStyle;rounded=0;orthogonalLoop=1;jettySize=auto;html=1;" edge="1" parent="1" source="uz8MjBbj6O2urt8frnY6-6" target="uz8MjBbj6O2urt8frnY6-8">
          <mxGeometry relative="1" as="geometry" />
        </mxCell>
        <mxCell id="uz8MjBbj6O2urt8frnY6-16" style="edgeStyle=orthogonalEdgeStyle;rounded=0;orthogonalLoop=1;jettySize=auto;html=1;exitX=1;exitY=0.5;exitDx=0;exitDy=0;entryX=0.5;entryY=1;entryDx=0;entryDy=0;dashed=1;" edge="1" parent="1" source="uz8MjBbj6O2urt8frnY6-6" target="uz8MjBbj6O2urt8frnY6-12">
          <mxGeometry relative="1" as="geometry" />
        </mxCell>
        <mxCell id="uz8MjBbj6O2urt8frnY6-17" value="call this command line utility&lt;br&gt;by giving source file" style="edgeLabel;html=1;align=center;verticalAlign=middle;resizable=0;points=[];" vertex="1" connectable="0" parent="uz8MjBbj6O2urt8frnY6-16">
          <mxGeometry x="-0.1855" y="-1" relative="1" as="geometry">
            <mxPoint as="offset" />
          </mxGeometry>
        </mxCell>
        <mxCell id="uz8MjBbj6O2urt8frnY6-6" value="Command Line Interface (python script written by us)" style="rounded=0;whiteSpace=wrap;html=1;" vertex="1" parent="1">
          <mxGeometry x="450" y="360" width="120" height="60" as="geometry" />
        </mxCell>
        <mxCell id="uz8MjBbj6O2urt8frnY6-14" style="edgeStyle=orthogonalEdgeStyle;rounded=0;orthogonalLoop=1;jettySize=auto;html=1;entryX=0;entryY=0.5;entryDx=0;entryDy=0;" edge="1" parent="1" source="uz8MjBbj6O2urt8frnY6-8" target="uz8MjBbj6O2urt8frnY6-12">
          <mxGeometry relative="1" as="geometry" />
        </mxCell>
        <mxCell id="uz8MjBbj6O2urt8frnY6-15" value="source file" style="edgeLabel;html=1;align=center;verticalAlign=middle;resizable=0;points=[];" vertex="1" connectable="0" parent="uz8MjBbj6O2urt8frnY6-14">
          <mxGeometry x="-0.2422" relative="1" as="geometry">
            <mxPoint as="offset" />
          </mxGeometry>
        </mxCell>
        <mxCell id="uz8MjBbj6O2urt8frnY6-8" value=".yml file for Ansible" style="rounded=0;whiteSpace=wrap;html=1;" vertex="1" parent="1">
          <mxGeometry x="450" y="230" width="120" height="60" as="geometry" />
        </mxCell>
        <mxCell id="uz8MjBbj6O2urt8frnY6-12" value="Ansible Libraries" style="rounded=0;whiteSpace=wrap;html=1;" vertex="1" parent="1">
          <mxGeometry x="640" y="230" width="120" height="60" as="geometry" />
        </mxCell>
        <mxCell id="uz8MjBbj6O2urt8frnY6-19" value="Compiled Version" style="rounded=0;whiteSpace=wrap;html=1;dashed=1;fillColor=#f8cecc;strokeColor=#b85450;opacity=20;align=left;verticalAlign=top;" vertex="1" parent="1">
          <mxGeometry x="980" y="140" width="580" height="360" as="geometry" />
        </mxCell>
        <mxCell id="uz8MjBbj6O2urt8frnY6-20" value="KLEE" style="rounded=0;whiteSpace=wrap;html=1;" vertex="1" parent="1">
          <mxGeometry x="990" y="360" width="120" height="60" as="geometry" />
        </mxCell>
        <mxCell id="uz8MjBbj6O2urt8frnY6-21" value="" style="curved=1;endArrow=classic;html=1;rounded=0;entryX=0;entryY=0.5;entryDx=0;entryDy=0;exitX=1;exitY=0.5;exitDx=0;exitDy=0;" edge="1" parent="1" source="uz8MjBbj6O2urt8frnY6-20" target="uz8MjBbj6O2urt8frnY6-26">
          <mxGeometry width="50" height="50" relative="1" as="geometry">
            <mxPoint x="1100" y="410" as="sourcePoint" />
            <mxPoint x="1190" y="390" as="targetPoint" />
            <Array as="points">
              <mxPoint x="1150" y="410" />
              <mxPoint x="1140" y="390" />
              <mxPoint x="1100" y="360" />
            </Array>
          </mxGeometry>
        </mxCell>
        <mxCell id="uz8MjBbj6O2urt8frnY6-22" value="cli args" style="text;html=1;align=center;verticalAlign=middle;resizable=0;points=[];autosize=1;strokeColor=none;fillColor=none;" vertex="1" parent="1">
          <mxGeometry x="1120" y="340" width="60" height="30" as="geometry" />
        </mxCell>
        <mxCell id="uz8MjBbj6O2urt8frnY6-23" value="creating .yml from cli args" style="edgeStyle=orthogonalEdgeStyle;rounded=0;orthogonalLoop=1;jettySize=auto;html=1;" edge="1" parent="1" source="uz8MjBbj6O2urt8frnY6-26" target="uz8MjBbj6O2urt8frnY6-29">
          <mxGeometry relative="1" as="geometry" />
        </mxCell>
        <mxCell id="uz8MjBbj6O2urt8frnY6-24" style="edgeStyle=orthogonalEdgeStyle;rounded=0;orthogonalLoop=1;jettySize=auto;html=1;exitX=1;exitY=0.5;exitDx=0;exitDy=0;entryX=0.5;entryY=1;entryDx=0;entryDy=0;dashed=1;" edge="1" parent="1" source="uz8MjBbj6O2urt8frnY6-26" target="uz8MjBbj6O2urt8frnY6-30">
          <mxGeometry relative="1" as="geometry" />
        </mxCell>
        <mxCell id="uz8MjBbj6O2urt8frnY6-25" value="call this command line utility&lt;br&gt;by giving source file" style="edgeLabel;html=1;align=center;verticalAlign=middle;resizable=0;points=[];" vertex="1" connectable="0" parent="uz8MjBbj6O2urt8frnY6-24">
          <mxGeometry x="-0.1855" y="-1" relative="1" as="geometry">
            <mxPoint as="offset" />
          </mxGeometry>
        </mxCell>
        <mxCell id="uz8MjBbj6O2urt8frnY6-26" value="Command Line Interface (python script written by us)" style="rounded=0;whiteSpace=wrap;html=1;" vertex="1" parent="1">
          <mxGeometry x="1200" y="360" width="120" height="60" as="geometry" />
        </mxCell>
        <mxCell id="uz8MjBbj6O2urt8frnY6-27" style="edgeStyle=orthogonalEdgeStyle;rounded=0;orthogonalLoop=1;jettySize=auto;html=1;entryX=0;entryY=0.5;entryDx=0;entryDy=0;" edge="1" parent="1" source="uz8MjBbj6O2urt8frnY6-29" target="uz8MjBbj6O2urt8frnY6-30">
          <mxGeometry relative="1" as="geometry" />
        </mxCell>
        <mxCell id="uz8MjBbj6O2urt8frnY6-28" value="source file" style="edgeLabel;html=1;align=center;verticalAlign=middle;resizable=0;points=[];" vertex="1" connectable="0" parent="uz8MjBbj6O2urt8frnY6-27">
          <mxGeometry x="-0.2422" relative="1" as="geometry">
            <mxPoint as="offset" />
          </mxGeometry>
        </mxCell>
        <mxCell id="uz8MjBbj6O2urt8frnY6-29" value=".yml file for Ansible" style="rounded=0;whiteSpace=wrap;html=1;" vertex="1" parent="1">
          <mxGeometry x="1200" y="230" width="120" height="60" as="geometry" />
        </mxCell>
        <mxCell id="uz8MjBbj6O2urt8frnY6-30" value="Ansible Libraries" style="rounded=0;whiteSpace=wrap;html=1;" vertex="1" parent="1">
          <mxGeometry x="1390" y="230" width="120" height="60" as="geometry" />
        </mxCell>
        <mxCell id="uz8MjBbj6O2urt8frnY6-31" value="" style="shape=flexArrow;endArrow=classic;html=1;rounded=0;entryX=0;entryY=0.5;entryDx=0;entryDy=0;exitX=1;exitY=0.5;exitDx=0;exitDy=0;" edge="1" parent="1" source="uz8MjBbj6O2urt8frnY6-18" target="uz8MjBbj6O2urt8frnY6-19">
          <mxGeometry width="50" height="50" relative="1" as="geometry">
            <mxPoint x="750" y="340" as="sourcePoint" />
            <mxPoint x="800" y="290" as="targetPoint" />
          </mxGeometry>
        </mxCell>
        <mxCell id="uz8MjBbj6O2urt8frnY6-32" value="nuitka + LLVM compiler" style="text;html=1;align=center;verticalAlign=middle;resizable=0;points=[];autosize=1;strokeColor=none;fillColor=none;" vertex="1" parent="1">
          <mxGeometry x="815" y="280" width="150" height="30" as="geometry" />
        </mxCell>
        <mxCell id="uz8MjBbj6O2urt8frnY6-34" value="" style="shape=mxgraph.mockup.markup.redX;fillColor=#ff0000;html=1;shadow=0;whiteSpace=wrap;strokeColor=none;" vertex="1" parent="1">
          <mxGeometry x="310" y="335" width="90" height="110" as="geometry" />
        </mxCell>
        <mxCell id="uz8MjBbj6O2urt8frnY6-35" value="this is not possible because KLEE works on LLVM bitcode" style="text;html=1;strokeColor=none;fillColor=none;align=center;verticalAlign=middle;whiteSpace=wrap;rounded=0;" vertex="1" parent="1">
          <mxGeometry x="260" y="460" width="180" height="30" as="geometry" />
        </mxCell>
      </root>
    </mxGraphModel>
  </diagram>
</mxfile>
